<svg width="21" height="26" viewBox="0 0 21 26" fill="none" xmlns="http://www.w3.org/2000/svg">
<path d="M14.2947 10.425C14.2947 11.4514 13.887 12.4357 13.1612 13.1615C12.4354 13.8873 11.4511 14.295 10.4247 14.295C9.3983 14.295 8.41395 13.8873 7.68818 13.1615C6.96242 12.4357 6.55469 11.4514 6.55469 10.425C6.55469 9.3986 6.96242 8.41425 7.68818 7.68849C8.41395 6.96272 9.3983 6.55499 10.4247 6.55499C11.4511 6.55499 12.4354 6.96272 13.1612 7.68849C13.887 8.41425 14.2947 9.3986 14.2947 10.425Z" stroke="#4EB349" stroke-width="1.5" stroke-linecap="round" stroke-linejoin="round"/>
<path d="M20.1 10.425C20.1 19.6382 10.425 24.9375 10.425 24.9375C10.425 24.9375 0.75 19.6382 0.75 10.425C0.75 7.85903 1.76933 5.39816 3.58374 3.58374C5.39816 1.76933 7.85903 0.75 10.425 0.75C12.991 0.75 15.4518 1.76933 17.2663 3.58374C19.0807 5.39816 20.1 7.85903 20.1 10.425Z" stroke="#4EB349" stroke-width="1.5" stroke-linecap="round" stroke-linejoin="round"/>
</svg>
