<svg width="35" height="35" viewBox="0 0 35 35" fill="none" xmlns="http://www.w3.org/2000/svg">
<path fill-rule="evenodd" clip-rule="evenodd" d="M15.1463 2.88509C13.1911 2.88525 11.2642 3.353 9.52654 4.24929C7.78884 5.14559 6.29068 6.44444 5.15704 8.03749C4.02341 9.63055 3.28718 11.4716 3.00978 13.4071C2.73238 15.3425 2.92184 17.3162 3.56237 19.1636C4.20291 21.0109 5.27593 22.6783 6.69191 24.0266C8.1079 25.3749 9.82579 26.365 11.7023 26.9144C13.5787 27.4637 15.5594 27.5564 17.4789 27.1846C19.3985 26.8128 21.2013 25.9874 22.737 24.7771L28.0051 30.0453C28.2772 30.3081 28.6416 30.4535 29.0198 30.4502C29.3981 30.4469 29.7599 30.2952 30.0273 30.0277C30.2948 29.7603 30.4465 29.3984 30.4498 29.0202C30.4531 28.642 30.3077 28.2776 30.0449 28.0055L24.7767 22.7374C26.202 20.9293 27.0894 18.7565 27.3374 16.4677C27.5854 14.1788 27.184 11.8664 26.1792 9.795C25.1744 7.72362 23.6067 5.97697 21.6555 4.75496C19.7043 3.53294 17.4486 2.88493 15.1463 2.88509ZM5.76979 15.1467C5.76979 12.6599 6.75767 10.2749 8.51611 8.51649C10.2745 6.75805 12.6595 5.77017 15.1463 5.77017C17.6331 5.77017 20.0181 6.75805 21.7765 8.51649C23.535 10.2749 24.5228 12.6599 24.5228 15.1467C24.5228 17.6335 23.535 20.0185 21.7765 21.7769C20.0181 23.5354 17.6331 24.5232 15.1463 24.5232C12.6595 24.5232 10.2745 23.5354 8.51611 21.7769C6.75767 20.0185 5.76979 17.6335 5.76979 15.1467Z" fill="#6D6D6D"/>
</svg>
