<svg width="24" height="24" viewBox="0 0 24 24" fill="none" xmlns="http://www.w3.org/2000/svg">
<path d="M22.3256 12C22.3256 14.7385 21.2377 17.3649 19.3013 19.3013C17.3649 21.2377 14.7385 22.3256 12 22.3256V24C18.6273 24 24 18.6273 24 12H22.3256ZM12 22.3256C9.26149 22.3256 6.63513 21.2377 4.69871 19.3013C2.76229 17.3649 1.67442 14.7385 1.67442 12H0C0 18.6273 5.37265 24 12 24V22.3256ZM1.67442 12C1.67442 9.26149 2.76229 6.63513 4.69871 4.69871C6.63513 2.76229 9.26149 1.67442 12 1.67442V0C5.37265 0 0 5.37265 0 12H1.67442ZM15.907 14.5116C14.2047 14.5116 12.5721 13.8354 11.3683 12.6317C10.1646 11.4279 9.48837 9.79534 9.48837 8.09302H7.81395C7.81395 10.2394 8.66661 12.2979 10.1843 13.8157C11.7021 15.3334 13.7606 16.186 15.907 16.186V14.5116ZM21.4047 11.4073C20.8335 12.3546 20.0271 13.1382 19.0639 13.6821C18.1007 14.226 17.0132 14.5118 15.907 14.5116V16.186C17.3016 16.1865 18.6727 15.8265 19.8873 15.1409C21.1019 14.4554 22.1187 13.4677 22.8391 12.2735L21.4047 11.4073ZM9.48837 8.09302C9.48821 6.98682 9.77395 5.89935 10.3179 4.9361C10.8618 3.97286 11.6454 3.16653 12.5927 2.59535L11.7265 1.16205C10.5325 1.88236 9.54484 2.89898 8.85934 4.11333C8.17383 5.32768 7.81373 6.69855 7.81395 8.09302H9.48837ZM12 1.67442C11.9439 1.67334 11.8886 1.66114 11.8372 1.63853C11.7859 1.61592 11.7395 1.58335 11.7008 1.5427C11.6538 1.49543 11.6219 1.43518 11.6093 1.36967C11.6048 1.33507 11.6071 1.2346 11.7265 1.16205L12.5927 2.59535C13.1542 2.256 13.3351 1.63423 13.2692 1.1453C13.2 0.637395 12.8004 0 12 0V1.67442ZM22.8391 12.2735C22.7654 12.3929 22.6649 12.3952 22.6303 12.3907C22.5648 12.3781 22.5046 12.3462 22.4573 12.2992C22.4167 12.2605 22.3841 12.2141 22.3615 12.1628C22.3389 12.1114 22.3267 12.0561 22.3256 12H24C24 11.1996 23.3626 10.8 22.8547 10.7308C22.3658 10.6649 21.744 10.8458 21.4047 11.4073L22.8391 12.2735Z" fill="#4EB349"/>
</svg>
